<?xml version="1.0" encoding="utf-8"?>
<!-- Generator: Adobe Illustrator 23.0.3, SVG Export Plug-In . SVG Version: 6.00 Build 0)  -->
<svg version="1.1" id="Layer_1" xmlns="http://www.w3.org/2000/svg" xmlns:xlink="http://www.w3.org/1999/xlink" x="0px" y="0px"
	 viewBox="0 0 86.3 89.4" style="enable-background:new 0 0 86.3 89.4;" xml:space="preserve">
<style type="text/css">
	.st0{fill:#018ABE;}
</style>
<path class="st0" d="M6.1,42.9L40.4,9.1c1.4-1.4,3.7-1.4,5.1,0l34.4,33.7c1.1,1,1.8,2.7,1.2,4c-0.4,0.8-1,1.5-1.6,2.1
	c-1.3,1.6-3.9,2.3-5.4,0.9L45,21c-1.6-1.8-2-1.9-4.2,0.2l-28,28c-0.7,0.7-1.6,1-2.5,1c-2.3,0.1-4.3-1.4-5-3.5
	C4.8,45.4,5.1,43.9,6.1,42.9z"/>
<path class="st0" d="M40,25.5c2.5-2.5,4-2.1,6.2,0.2s20,20.2,20,20.2l4.7,5c0.6,0.6,1,1.5,1,2.3l0.5,21.4c0,0,0.4,6.3-6.2,6.6
	s-13.9,0-13.9,0s-2.5,0.2-2.6-3.4s-0.1-18-0.1-18c0.2-1.6-1-2.9-2.5-3.1c-0.1,0-0.3,0-0.4,0c-4-0.1-6.7,0-6.7,0s-3.5-0.6-3.6,3.5
	s0.1,15.1,0,17.5s-0.7,3.8-3.9,3.8c-4.2-0.1-11.9,0-11.9,0s-5.8,0.3-5.9-6.2s-0.1-22.4-0.1-22.4s-0.2-1,1.7-3
	C19,46.8,40,25.5,40,25.5z"/>
<path class="st0" d="M65.1,12.4c2.7,0,4.4-0.4,4.4,3.5v10.3c0,0,0.2,3.3-2.4,0.4s-6.2-6.7-6.2-6.7c-0.9-0.9-1.3-2.1-1.2-3.4
	c0-2.8,0.1-3.8,2.2-3.9S65.1,12.4,65.1,12.4z"/>
</svg>
